PathFileType	4	(X/Y/Z)	C:/Users/opensim2020/Desktop/walking_exp_matlab/subject06_walking11_run_cyclic.trc																																																																																																																																								
DataRate	CameraRate	NumFrames	NumMarkers	Units	OrigDataRate	OrigDataStartFrame	OrigNumFrames																																																																																																																																				
100	100	4	46	mm	100	233	66																																																																																																																																				
Frame#	Time	LKNE			RKNE			RFRM			RWRA			RWRB			RELB			RUPA			RSHO			LWRA			RFIN			RFHD			CLAV			RASI			RTHI			LSHO			LTHI			RBHD			C7			LTIB			LANK			LTOE			LBHD			RTIB			RBAK			LHEE			RANK			STRN			RHEE			RTOE			T10			LUPA			LFHD			LPSI			RPSI			LASI			LFRM			LWRB			LFIN			LELB			*39			*40			*41			*42			*43			*44			*45		
		X1	Y1	Z1	X2	Y2	Z2	X3	Y3	Z3	X4	Y4	Z4	X5	Y5	Z5	X6	Y6	Z6	X7	Y7	Z7	X8	Y8	Z8	X9	Y9	Z9	X10	Y10	Z10	X11	Y11	Z11	X12	Y12	Z12	X13	Y13	Z13	X14	Y14	Z14	X15	Y15	Z15	X16	Y16	Z16	X17	Y17	Z17	X18	Y18	Z18	X19	Y19	Z19	X20	Y20	Z20	X21	Y21	Z21	X22	Y22	Z22	X23	Y23	Z23	X24	Y24	Z24	X25	Y25	Z25	X26	Y26	Z26	X27	Y27	Z27	X28	Y28	Z28	X29	Y29	Z29	X30	Y30	Z30	X31	Y31	Z31	X32	Y32	Z32	X33	Y33	Z33	X34	Y34	Z34	X35	Y35	Z35	X36	Y36	Z36	X37	Y37	Z37	X38	Y38	Z38	X39	Y39	Z39	X40	Y40	Z40	X41	Y41	Z41	X42	Y42	Z42	X43	Y43	Z43	X44	Y44	Z44	X45	Y45	Z45	X46	Y46	Z46
																																																																																																																																											
19	0.18	72.32678	493.51114	108.62106	-50.27129	467.98456	360.08679	22.31338	1117.01746	479.24445	105.0885	1122.8595	364.67709	113.96014	1066.18628	397.50723	-48.80939	1178.60315	527.64148	-31.12419	1281.04956	480.17822	49.41185	1405.86462	341.59164	34.91473	1110.41553	23.84251	180.06723	1085.39124	354.32089	106.74979	1632.05737	252.88335	79.64156	1348.57349	188.6263	38.94255	938.21082	340.58243	-45.56122	596.20203	383.40613	3.48697	1389.43628	40.77211	18.387	645.34863	70.8633	-23.22693	1577.14722	246.80748	-21.6691	1435.7229	190.77547	34.94065	237.36226	138.22322	15.22816	72.56298	199.66238	159.53464	35.48119	215.17262	-19.57987	1578.60706	117.24084	-281.52222	364.09216	356.19659	-105.51844	1296.07483	294.72714	-28.58883	68.41774	243.71584	-458.02734	313.70715	323.1698	98.98642	1167.7605	198.52502	-496.9072	338.00693	277.4429	-435.17633	163.3833	336.00558	-100.80112	1130.03906	239.45134	-98.59041	1255.17932	-63.09677	110.90301	1639.15222	120.58916	-116.38352	991.52271	157.88612	-100.53214	986.66284	323.50125	34.53191	941.10022	125.02099	-58.35773	1090.85828	-66.40142	27.46788	1044.88391	0.40144	111.31329	1053.30652	35.63832	-156.56955	1172.39587	-100.69877	NaN	NaN	NaN	6.92908	1675.24683	174.77029	NaN	NaN	NaN	NaN	NaN	NaN	NaN	NaN	NaN	NaN	NaN	NaN	NaN	NaN	NaN
20	0.19	107.34863	484.52139	110.54196	9.90268	458.70972	360.95615	48.61512	1105.48779	484.9007	135.76924	1102.82629	373.32343	140.81927	1047.20166	408.94089	-22.44323	1172.94727	525.86548	-3.05591	1274.33459	479.01312	82.68707	1397.39343	341.7836	82.88795	1099.57898	24.50799	207.78587	1060.93481	366.59592	141.26851	1624.6405	252.72874	117.06725	1339.9342	188.78419	75.49645	928.71198	340.66824	5.7365	586.53363	384.8717	43.61572	1378.6731	38.22475	52.35396	635.48627	70.96841	11.95349	1568.21997	244.74719	14.45421	1426.09424	188.46431	52.06201	231.40889	139.46802	14.33925	69.5974	200.15965	158.00954	35.47741	216.60643	17.72105	1569.25684	115.2672	-218.18221	359.25052	358.40359	-71.01479	1286.02661	291.3306	-29.63679	66.55625	242.46358	-395.36478	311.38806	327.13898	136.44081	1158.65051	199.55849	-435.31296	334.75266	281.40237	-369.98694	162.28033	342.11411	-64.53659	1120.16174	238.55127	-50.44268	1238.45203	-68.04371	147.46994	1631.30005	120.32279	-81.48456	983.35126	158.11368	-65.27687	976.72302	324.95856	69.40742	932.44147	125.24368	-6.25223	1076.62939	-68.71534	78.01442	1033.57532	1.66625	160.2234	1044.62646	39.60626	-104.87474	1154.93933	-107.17352	NaN	NaN	NaN	42.15969	1666.28784	172.80045	NaN	NaN	NaN	NaN	NaN	NaN	NaN	NaN	NaN	NaN	NaN	NaN	NaN	NaN	NaN
21	0.2	139.31407	475.41766	113.47793	71.9722	451.94733	360.72769	74.0492	1094.59668	490.66882	165.15082	1083.96887	382.58496	166.89467	1029.9696	421.29932	3.28602	1167.41577	525.5835	24.33392	1266.51379	478.26648	115.66019	1389.13733	342.54968	131.16734	1089.47937	25.66405	235.63499	1038.6897	380.92197	175.47896	1617.89172	252.66071	155.07123	1331.49268	189.31146	111.34406	919.37506	340.39209	57.91413	578.17145	385.88635	84.33377	1368.30359	35.34269	84.7175	625.4317	71.92929	47.35475	1559.74963	242.93657	50.83389	1416.98328	185.85622	66.71548	227.69415	138.67876	18.39697	68.73105	200.06642	158.34151	35.4051	217.22925	55.11167	1560.57947	113.53443	-152.63031	354.61649	360.46829	-37.07559	1275.24976	287.1611	-28.75765	65.58308	242.5188	-330.13101	307.48376	331.34204	173.5488	1149.9856	200.80869	-371.18808	330.10391	285.97818	-302.02826	159.73653	347.43173	-28.73403	1109.59436	237.20618	-0.90671	1221.5979	-73.47111	184.0322	1624.27625	120.43999	-47.26229	975.42749	157.98445	-31.33115	966.99237	326.28293	103.32747	923.47736	125.5388	46.47862	1062.87891	-70.11643	129.02252	1022.95294	4.04535	209.50385	1037.03223	44.23707	-51.81849	1137.38806	-113.18494	NaN	NaN	NaN	77.41982	1657.92712	171.15587	NaN	NaN	NaN	NaN	NaN	NaN	NaN	NaN	NaN	NaN	NaN	NaN	NaN	NaN	NaN
22	0.21	165.6127	465.91116	114.39898	136.00652	448.97211	359.62817	98.43192	1085.4032	495.62445	192.94362	1067.23914	391.88278	191.47186	1015.11481	433.28317	28.86593	1162.13379	524.59375	51.09837	1258.54907	477.74661	148.47227	1381.82568	343.61719	180.33838	1081.30139	28.00839	261.996	1019.33051	395.40344	210.39561	1611.80396	253.13667	193.47501	1323.85205	190.1665	146.58987	910.82092	339.91238	111.62712	573.38342	386.14114	125.83173	1359.02771	32.21716	115.4578	615.9751	72.18311	82.85406	1552.15662	241.36702	87.55194	1410.27966	183.08142	82.09272	224.70071	139.877	20.42531	68.4642	201.15694	158.35822	35.30096	218.13208	92.57513	1553.04333	112.13593	-85.19106	350.81976	362.42004	-3.52944	1265.57532	281.59732	-28.12084	66.71768	242.65529	-262.67847	301.93045	335.0737	211.03148	1141.97607	201.87184	-305.09131	323.81305	290.53113	-230.45418	155.71989	351.40585	6.83084	1099.22144	235.47395	49.22062	1205.22546	-77.31577	220.71158	1618.42798	120.85185	-13.32146	968.07605	157.89296	1.71827	957.81317	327.24289	136.69543	915.05267	125.7214	100.34116	1050.75183	-70.40245	180.61215	1014.12823	7.44008	259.2554	1031.45703	49.61538	3.07324	1120.75146	-118.0371	NaN	NaN	NaN	112.80048	1650.64771	170.00139	NaN	NaN	NaN	NaN	NaN	NaN	NaN	NaN	NaN	NaN	NaN	NaN	NaN	NaN	NaN
